<?xml version="1.0" encoding="iso-8859-1"?>
<!-- Generator: Adobe Illustrator 16.0.0, SVG Export Plug-In . SVG Version: 6.00 Build 0)  -->
<!DOCTYPE svg PUBLIC "-//W3C//DTD SVG 1.1//EN" "http://www.w3.org/Graphics/SVG/1.1/DTD/svg11.dtd">
<svg version="1.1" xmlns="http://www.w3.org/2000/svg" xmlns:xlink="http://www.w3.org/1999/xlink" x="0px" y="0px" viewBox="0 0 512 512" style="enable-background:new 0 0 512 512;" xml:space="preserve">
<g id="_x32_71_-_Ability_x2C__human_x2C__multitask_x2C__organization">
	<g>
		<g>
			<g>
				<polygon style="fill:#F7D794;" points="248,487 193,487 193,347 303,347 303,487 				"/>
			</g>
			<g>
				<polygon style="fill:#DBB389;" points="363,177 413,277 353,337 323,337 323,307 363,267 323,177 				"/>
			</g>
			<g>
				<polygon style="fill:#DBB389;" points="173,307 173,337 143,337 83,277 133,177 173,177 133,267 				"/>
			</g>
			<g>
				<polygon style="fill:#FFEAA7;" points="323,337 323,347 303,347 193,347 173,347 173,337 173,307 323,307 				"/>
			</g>
			<g>
				<path style="fill:#FFEAA7;" d="M423,67v75c0,19.33-15.67,35-35,35h-5h-20h-40v-40h60V67H423z"/>
			</g>
			<g>
				<path style="fill:#FFEAA7;" d="M173,137v40h-40h-20h-5c-19.33,0-35-15.67-35-35V67h40v70H173z"/>
			</g>
			<g>
				<polygon style="fill:#FFD8A8;" points="323,177 323,307 173,307 173,177 173,137 323,137 				"/>
			</g>
			<g>
				<path style="fill:#FFEBBE;" d="M248,17c24.85,0,45,20.15,45,45s-20.15,45-45,45c-24.85,0-45-20.15-45-45S223.15,17,248,17z"/>
			</g>
			<g>
				<path style="fill:#C4A774;" d="M248,495c-4.418,0-8-3.582-8-8V387c0-4.418,3.582-8,8-8c4.418,0,8,3.582,8,8v100
					C256,491.418,252.418,495,248,495z"/>
			</g>
			<g>
				<g>
					<path style="fill:#E8A664;" d="M431,495H81c-4.418,0-8-3.582-8-8s3.582-8,8-8h350c4.418,0,8,3.582,8,8S435.418,495,431,495z"/>
				</g>
			</g>
			<g>
				<path style="fill:#C1A381;" d="M253,175h-10c-4.418,0-8-3.582-8-8s3.582-8,8-8h10c4.418,0,8,3.582,8,8S257.418,175,253,175z"/>
			</g>
			<g>
				<path style="fill:#C1A381;" d="M253,205h-10c-4.418,0-8-3.582-8-8s3.582-8,8-8h10c4.418,0,8,3.582,8,8S257.418,205,253,205z"/>
			</g>
		</g>
	</g>
</g>
<g id="Layer_1">
</g>
</svg>
