<?xml version="1.0" encoding="UTF-8" standalone="no"?> <svg id="Flat" xmlns="http://www.w3.org/2000/svg" xmlns:xlink="http://www.w3.org/1999/xlink" viewBox="0 0 340 340"><defs><linearGradient id="linear-gradient" x1="110.556" y1="287.782" x2="284.057" y2="193.936" gradientUnits="userSpaceOnUse"><stop offset="0" stop-color="#6b78f5"/><stop offset="1" stop-color="#b8c1ff"/></linearGradient><linearGradient id="linear-gradient-2" x1="117.861" y1="287.143" x2="285.75" y2="196.331" xlink:href="#linear-gradient"/><linearGradient id="linear-gradient-3" x1="55.337" y1="212.416" x2="55.337" y2="307.876" gradientUnits="userSpaceOnUse"><stop offset="0" stop-color="#8479aa"/><stop offset="1" stop-color="#3c3c6b"/></linearGradient><linearGradient id="linear-gradient-4" x1="90.535" y1="212.416" x2="90.535" y2="307.876" xlink:href="#linear-gradient-3"/><linearGradient id="linear-gradient-5" x1="284.663" y1="212.416" x2="284.663" y2="307.876" xlink:href="#linear-gradient-3"/><linearGradient id="linear-gradient-6" x1="170.19" y1="18.428" x2="170.19" y2="222.379" gradientUnits="userSpaceOnUse"><stop offset="0.063" stop-color="#ff768e"/><stop offset="1" stop-color="#71537f"/></linearGradient><linearGradient id="linear-gradient-7" x1="170.19" y1="40.79" x2="170.19" y2="141.769" gradientUnits="userSpaceOnUse"><stop offset="0" stop-color="#61618e"/><stop offset="1" stop-color="#323261"/></linearGradient><linearGradient id="linear-gradient-8" x1="170.19" y1="18.428" x2="170.19" y2="222.379" gradientUnits="userSpaceOnUse"><stop offset="0.059" stop-color="#ff768e"/><stop offset="1" stop-color="#71537f"/></linearGradient><linearGradient id="linear-gradient-9" x1="265.097" y1="294.499" x2="98.663" y2="226.692" gradientUnits="userSpaceOnUse"><stop offset="0" stop-color="#adbafa"/><stop offset="1" stop-color="#dbe4ff"/></linearGradient><linearGradient id="linear-gradient-10" x1="249.465" y1="212.416" x2="249.465" y2="307.876" xlink:href="#linear-gradient-3"/></defs><path d="M126.957,253.748l-39.55,17.985,9.058,23.394s38.116,1.538,83.436-16.283C157.429,271.628,136.627,264.014,126.957,253.748Z" style="fill:url(#linear-gradient)"/><path d="M287.458,180.762,191.53,224.385a3.028,3.028,0,0,0,.083,5.55l38.212,16a8.392,8.392,0,0,0,8.568-1.247,215.768,215.768,0,0,0,51.227-61.566A1.686,1.686,0,0,0,287.458,180.762Z" style="fill:url(#linear-gradient-2)"/><path d="M40.242,311.311a10.834,10.834,0,1,1-4.5-11.332c15.534-12.335,47.168-25.446,47.168-25.446l8.931,22.494S60.007,309.632,40.242,311.311Z" style="fill:url(#linear-gradient-3)"/><path d="M91.1,310.156,66.773,247.342a1.59,1.59,0,0,1,1.483-2.164h6.682a15.7,15.7,0,0,1,14.644,10.033l24.715,63.83a1.59,1.59,0,0,1-1.483,2.164h-5.592A17.292,17.292,0,0,1,91.1,310.156Z" style="fill:url(#linear-gradient-4)"/><path d="M299.758,311.311a10.834,10.834,0,1,0,4.5-11.332c-15.534-12.335-47.168-25.446-47.168-25.446l-8.931,22.494S279.993,309.632,299.758,311.311Z" style="fill:url(#linear-gradient-5)"/><path d="M272.771,146.025l-26.5-19.25a25.282,25.282,0,0,1-10.138-24.092A113.508,113.508,0,0,0,236.82,73.8c-2.659-22.6-23.586-55-66.63-55s-63.972,32.4-66.631,55a113.508,113.508,0,0,0,.684,28.888,25.282,25.282,0,0,1-10.138,24.092l-26.5,19.25A11.72,11.72,0,0,0,65.9,163.508c7.991,8.494,14.4,11.321,14.4,11.321l68.175,31h43.439l68.175-31s6.409-2.827,14.4-11.321A11.72,11.72,0,0,0,272.771,146.025Z" style="fill:url(#linear-gradient-6)"/><path d="M156.827,73.2c-12.254,7.741-28.44,24.44-27.963,58.531,0,0,12.686,16.057,41.326,27.527,28.639-11.47,41.325-27.527,41.325-27.527.477-34.091-15.709-50.79-27.963-58.531A24.951,24.951,0,0,0,156.827,73.2Z" style="fill:url(#linear-gradient-7)"/><path d="M211.515,131.731l-29.839,16.6a23.624,23.624,0,0,1-22.973,0l-29.839-16.6s-.877,43.691,17.191,73.211l15.358,6.984a21.2,21.2,0,0,0,17.553,0l15.358-6.984C212.392,175.422,211.515,131.731,211.515,131.731Z" style="fill:url(#linear-gradient-8)"/><path d="M52.542,180.762l200.051,90.972-9.058,23.393s-127.2,5.137-193.155-112A1.686,1.686,0,0,1,52.542,180.762Z" style="fill:url(#linear-gradient-9)"/><path d="M248.512,311.172l24.715-63.83a1.59,1.59,0,0,0-1.483-2.164h-6.682a15.7,15.7,0,0,0-14.644,10.033L225.7,319.041a1.59,1.59,0,0,0,1.483,2.164h6.682A15.7,15.7,0,0,0,248.512,311.172Z" style="fill:url(#linear-gradient-10)"/><path d="M164.462,125.535l-19.873-12.053s-4.034,8.621,4.163,13.967S164.462,125.535,164.462,125.535Z" style="fill:#fff"/><path d="M175.917,125.535l19.873-12.053s4.034,8.621-4.163,13.967S175.917,125.535,175.917,125.535Z" style="fill:#fff"/></svg>