<?xml version="1.0" encoding="utf-8"?>
<!-- Generator: Adobe Illustrator 26.0.2, SVG Export Plug-In . SVG Version: 6.00 Build 0)  -->
<svg version="1.1" id="Layer_3" xmlns="http://www.w3.org/2000/svg" xmlns:xlink="http://www.w3.org/1999/xlink" x="0px" y="0px"
	 viewBox="0 0 64 64" style="enable-background:new 0 0 64 64;" xml:space="preserve">
<g>
	<g>
		<path style="fill:#4FA6E3;" d="M51,2H16c-3.314,0-6,2.686-6,6v44c0-4.418,3.582-8,8-8h36V5C54,3.343,52.657,2,51,2z"/>
	</g>
	<path style="fill:#68C0F7;" d="M51,2H16c-3.314,0-6,2.686-6,6v44c0-4.418,3.582-8,8-8h33V2z"/>
	<rect x="24" y="6" style="fill:#D5DCF8;" width="26" height="26"/>
	<rect x="24" y="6" style="fill:#EBF0FD;" width="23" height="26"/>
	<path style="fill:#D5DCF8;" d="M52,56H18c-2.209,0-4-1.791-4-4v0c0-2.209,1.791-4,4-4h34V56z"/>
	<path style="fill:#EBF0FD;" d="M18,48c-2.209,0-4,1.791-4,4c0,2.209,1.791,4,4,4h31v-8H18z"/>
	<path style="fill:#68C0F7;" d="M54,56H18c-2.209,0-4-1.791-4-4v0c0-2.209,1.791-4,4-4h36v-4H18c-4.418,0-8,3.582-8,8v0
		c0,4.418,3.582,8,8,8h36V56z"/>
	<path style="fill:#86CDF9;" d="M18,56h-2c-2.209,0-4-1.791-4-4c0-2.209,1.791-4,4-4h2h33v-4H18c-4.418,0-8,3.582-8,8s3.582,8,8,8
		h33v-4H18z"/>
	<polygon style="fill:#F09737;" points="40,52 40,62 44,58 48,62 48,52 	"/>
	<polygon style="fill:#F5B64F;" points="40,52 40,62 44,58 46,60 46,52 	"/>
	<g>
		<rect x="19" y="2" style="fill:#4FA6E3;" width="2" height="42"/>
	</g>
	<polygon style="fill:#F09737;" points="37,10 39.163,14.609 44,15.348 40.5,18.935 41.326,24 37,21.609 32.674,24 33.5,18.935 
		30,15.348 34.837,14.609 	"/>
	<polygon style="fill:#D5DCF8;" points="37,21.609 35,22.714 35,32 39,32 39,22.714 	"/>
	<polygon style="fill:#FFFFFF;" points="35,22.714 35,32 37,32 37,21.609 	"/>
	<polygon style="fill:#F5B64F;" points="38.5,19.935 42,16.348 37.163,15.609 35.765,12.63 34.837,14.609 30,15.348 33.5,18.935 
		32.674,24 37,21.609 38.949,22.686 	"/>
	<g>
		<path d="M54,49c0.553,0,1-0.447,1-1V5c0-2.206-1.794-4-4-4H16c-3.859,0-7,3.14-7,7v44c0,4.963,4.037,9,9,9h21v1
			c0,0.404,0.243,0.77,0.617,0.924c0.374,0.155,0.804,0.069,1.09-0.217L44,59.414l3.293,3.293C47.484,62.898,47.74,63,48,63
			c0.129,0,0.259-0.024,0.383-0.076C48.757,62.77,49,62.404,49,62v-1h5c0.553,0,1-0.447,1-1v-4c0-0.553-0.447-1-1-1h-1v-6H54z M53,5
			v38H21V3h30C52.103,3,53,3.897,53,5z M11,8c0-2.757,2.243-5,5-5h3v40h-1c-2.826,0-5.349,1.312-7,3.355V8z M18,59
			c-3.859,0-7-3.141-7-7s3.141-7,7-7h35v2H18c-2.757,0-5,2.243-5,5s2.243,5,5,5h21v2H18z M15.184,53H39v2H18
			C16.698,55,15.598,54.161,15.184,53z M44.707,57.293c-0.391-0.391-1.023-0.391-1.414,0L41,59.586V53h6v6.586L44.707,57.293z
			 M53,59h-4v-2h4V59z M49,55v-2h2v2H49z M51,51H15.184c0.414-1.161,1.514-2,2.816-2h33V51z"/>
		<path d="M24,33h26c0.553,0,1-0.448,1-1V6c0-0.552-0.447-1-1-1H24c-0.553,0-1,0.448-1,1v26C23,32.552,23.447,33,24,33z
			 M34.216,18.236l-2.141-2.194l2.913-0.445c0.329-0.05,0.612-0.262,0.754-0.563L37,12.354l1.258,2.68
			c0.142,0.302,0.425,0.513,0.754,0.563l2.913,0.445l-2.141,2.194c-0.222,0.227-0.322,0.546-0.271,0.859l0.495,3.033l-2.524-1.395
			c-0.15-0.083-0.316-0.125-0.483-0.125s-0.333,0.042-0.483,0.125l-2.524,1.395l0.495-3.033
			C34.538,18.782,34.437,18.463,34.216,18.236z M37,22.751l1,0.553V31h-2v-7.696L37,22.751z M25,7h24v24h-9v-6.591l0.843,0.466
			C40.993,24.958,41.16,25,41.326,25c0.202,0,0.404-0.062,0.576-0.183c0.312-0.22,0.473-0.601,0.411-0.979l-0.745-4.567l3.147-3.226
			c0.262-0.268,0.352-0.66,0.232-1.016s-0.427-0.615-0.797-0.671l-4.31-0.659l-1.937-4.125C37.74,9.224,37.388,9,37,9
			s-0.74,0.224-0.905,0.575l-1.937,4.125l-4.31,0.659c-0.37,0.056-0.678,0.315-0.797,0.671s-0.029,0.748,0.232,1.016l3.147,3.226
			l-0.745,4.567c-0.062,0.378,0.099,0.758,0.411,0.979c0.312,0.221,0.726,0.243,1.06,0.058L34,24.409V31h-9V7z"/>
		<rect x="29" y="35" width="16" height="2"/>
		<rect x="23" y="39" width="24" height="2"/>
		<rect x="49" y="39" width="2" height="2"/>
		<rect x="45" y="9" width="2" height="2"/>
		<rect x="30" y="10" width="2" height="2"/>
		<rect x="27" y="22" width="2" height="2"/>
		<rect x="45" y="19" width="2" height="2"/>
	</g>
</g>
</svg>
