<svg version="1.1" viewBox="0 0 695 560" xmlns="http://www.w3.org/2000/svg" xmlns:xlink="http://www.w3.org/1999/xlink">
  <g>
    <path d="M350 28 131.76 154v252l7.227 4.176 211.01 121.82 218.24 -126v-252zm0 42.531 87.168 128.94h-174.34zm-47.18 18.121 -71.676 106.02 -55.977 -32.316zm94.367 0 127.64 73.695 -55.969 32.316zm-236.49 98.754 55.984 32.316 -55.984 115.09zm378.6 0v147.41l-55.984 -115.1L539.29 187.4zm-278.65 40.992h178.7l-89.352 154.77zm-23.973 16.363 87.176 150.98 -155.25 -11.02 68.07 -139.96zm226.65 0 68.078 139.96 -155.25 11.02 87.168 -150.98zm-255.46 171.76 127.66 9.07v64.637l-127.66 -73.71zm284.28 0 -127.67 73.711v-64.637l127.67 -9.07z"/>
  </g>
</svg>
