<?xml version="1.0" encoding="UTF-8"?>
<!DOCTYPE svg PUBLIC "-//W3C//DTD SVG 1.1//EN" "http://www.w3.org/Graphics/SVG/1.1/DTD/svg11.dtd">
<!-- Creator: CorelDRAW -->
<svg xmlns="http://www.w3.org/2000/svg" xml:space="preserve" version="1.1" style="shape-rendering:geometricPrecision; text-rendering:geometricPrecision; image-rendering:optimizeQuality; fill-rule:evenodd; clip-rule:evenodd"
viewBox="0 0 1707 1707"
 xmlns:xlink="http://www.w3.org/1999/xlink">
 <defs>
  <style type="text/css">
   <![CDATA[
    .fil2 {fill:#728081}
    .fil1 {fill:#B6BABB}
    .fil0 {fill:#C6CBCC}
   ]]>
  </style>
 </defs>
 <g id="Layer_x0020_1">
  <metadata id="CorelCorpID_0Corel-Layer"/>
  <path class="fil0" fill="#C6CBCC" d="M1096 1706l-485 0c-64,0 -139,-50 -146,-117 -2,-19 -1,-57 -1,-84 0,-8 0,-15 0,-19 0,-50 -30,-76 -89,-77 -84,-3 -170,-56 -169,-141 0,-14 1,-29 1,-46 3,-55 7,-124 -13,-161 -75,-137 -90,-282 -50,-470 39,-183 132,-336 270,-441 125,-96 282,-149 443,-149 160,0 315,52 438,147 136,105 228,258 268,443 40,189 24,333 -50,470 -20,37 -17,106 -14,161 1,17 2,32 2,46 1,85 -85,138 -169,141 -60,1 -90,27 -90,77 0,4 0,11 1,19 0,27 1,65 -1,84 -7,67 -83,117 -146,117z"/>
  <path class="fil1" fill="#B6BABB" d="M1096 1706l-11 0 0 -140c0,-13 10,-24 23,-24 13,0 23,11 23,24l0 135c-12,3 -23,5 -35,5zm-38 0l-46 0 0 -140c0,-13 10,-24 23,-24 13,0 23,11 23,24l0 140zm-72 0l-47 0 0 -140c0,-13 10,-24 23,-24 13,0 24,11 24,24l0 140zm-73 0l-47 0 0 -140c0,-13 11,-24 23,-24 13,0 24,11 24,24l0 140zm-73 0l-47 0 0 -140c0,-13 11,-24 24,-24 12,0 23,11 23,24l0 140zm-73 0l-47 0 0 -140c0,-13 11,-24 24,-24 13,0 23,11 23,24l0 140zm-73 0l-46 0 0 -140c0,-13 10,-24 23,-24 13,0 23,11 23,24l0 140zm-73 0l-10 0c-12,0 -24,-2 -36,-5l0 -135c0,-13 10,-24 23,-24 13,0 23,11 23,24l0 140z"/>
  <path class="fil2" fill="#728081" d="M750 1153c-2,0 -4,0 -6,-1 -9,-2 -16,-10 -17,-19 -15,-101 1,-184 43,-233 23,-26 53,-41 83,-41 31,0 60,15 83,41 43,49 58,132 44,233 -1,9 -8,17 -17,19 -9,3 -19,-1 -24,-8 -20,-25 -52,-40 -86,-40 -34,0 -65,15 -85,40 -4,6 -11,9 -18,9z"/>
  <path class="fil2" fill="#728081" d="M1209 823c-86,0 -185,-85 -193,-166 -4,-41 18,-90 53,-116 23,-18 53,-27 86,-27 86,0 189,62 200,150 4,30 5,132 -123,157 -8,1 -15,2 -23,2z"/>
  <path class="fil2" fill="#728081" d="M498 823c0,0 0,0 0,0 -8,0 -16,-1 -23,-2 -129,-25 -127,-127 -123,-157 10,-88 113,-150 199,-150 34,0 63,9 86,27 35,26 58,75 54,116 -8,81 -108,166 -193,166z"/>
 </g>
</svg>
