<?xml version="1.0" encoding="UTF-8"?>
<svg viewBox="0 0 58 58" version="1.1" xmlns="http://www.w3.org/2000/svg" xmlns:xlink="http://www.w3.org/1999/xlink">
    <!-- Generator: Sketch 51.3 (57544) - http://www.bohemiancoding.com/sketch -->
    <title>046 - D and D Beholder</title>
    <desc>Created with Sketch.</desc>
    <defs></defs>
    <g id="Page-1" stroke="none" stroke-width="1" fill="none" fill-rule="evenodd">
        <g id="046---D-and-D-Beholder" fill-rule="nonzero">
            <path d="M9.65,17.98 C11.6967724,15.8721722 14.0919106,14.1333289 16.73,12.84 L21.75,10.96 C23.9022229,10.3714926 26.1191688,10.0523868 28.35,10.01 L38.69,11.73 L38.7,11.73 C39.7514721,12.112847 40.7741009,12.5706906 41.76,13.1 L46.18,16 C48.2806762,17.7004552 50.0880296,19.7341501 51.53,22.02 L54.98,33.21 C55,33.47 55,33.73 55,34 C54.9760305,39.7219281 52.8023068,45.2258394 48.91,49.42 C49.5518372,49.927406 49.9480453,50.6834728 50,51.5 C50,55.09 40.6,58 29,58 C17.4,58 8,55.09 8,51.5 C8.0519547,50.6834728 8.44816276,49.927406 9.09,49.42 C5.19769323,45.2258394 3.0239695,39.7219281 3,34 C2.99659167,32.4672147 3.15751107,30.9384804 3.48,29.44 L9.65,17.98 Z" id="Shape" fill="#CC66A1"></path>
            <path d="M29,52 C39.928,52 43.9,52 44.9,46 C45.573,41.933 42.913,40 38.939,41 C34.965,42 33.967,42 29,42 C24.033,42 23.039,42 19.065,41 C15.091,40 12.431,41.933 13.104,46 C14.1,52 18.072,52 29,52 Z" id="Shape" fill="#802D40"></path>
            <path d="M40,28 C40,32.97 35.08,37 29,37 C22.92,37 18,32.97 18,28 C18.0099094,26.4284304 18.4982437,24.8971537 19.4,23.61 C20.7076468,24.1633105 22.0887326,24.5237402 23.5,24.68 C25.3242954,24.9075667 27.1616228,25.0144657 29,25 C30.8383772,25.0144657 32.6757046,24.9075667 34.5,24.68 C35.9112674,24.5237402 37.2923532,24.1633105 38.6,23.61 C39.5017563,24.8971537 39.9900906,26.4284304 40,28 Z" id="Shape" fill="#FFFFFF"></path>
            <path d="M29,42 L26.813,45.645 C26.6366429,45.9391252 26.3218665,46.1223627 25.9790172,46.1304775 C25.636168,46.1385922 25.3130749,45.9704523 25.123,45.685 L22.84,42.26 L22.49,41.74 C24.6504366,41.9894473 26.8265512,42.0763582 29,42 Z" id="Shape" fill="#F5EFCA"></path>
            <path d="M35.51,41.74 L35.16,42.26 L32.877,45.685 C32.6869251,45.9704523 32.363832,46.1385922 32.0209828,46.1304775 C31.6781335,46.1223627 31.3633571,45.9391252 31.187,45.645 L29,42 C31.1734488,42.0763582 33.3495634,41.9894473 35.51,41.74 Z" id="Shape" fill="#F5EFCA"></path>
            <path d="M41.55,40.78 L38.85,45.515 C38.6739404,45.823845 38.34715,46.0159994 37.9916666,46.0197045 C37.6361832,46.0234096 37.3054586,45.8381082 37.123,45.533 L35.16,42.26 L35.51,41.74 C36.48,41.58 37.52,41.36 38.93,41 C39.7831138,40.7703713 40.6705388,40.6958547 41.55,40.78 Z" id="Shape" fill="#F5EFCA"></path>
            <path d="M22.84,42.26 L20.879,45.533 C20.6965414,45.8381082 20.3658168,46.0234096 20.0103334,46.0197045 C19.65485,46.0159994 19.3280596,45.823845 19.152,45.515 L16.452,40.78 C17.3314612,40.6958547 18.2188862,40.7703713 19.072,41 C20.492,41.36 21.522,41.58 22.492,41.74 L22.84,42.26 Z" id="Shape" fill="#F5EFCA"></path>
            <path d="M36,29 C36.0044331,32.0670753 34.0117208,34.7798403 31.0836732,35.692807 C28.1556257,36.6057737 24.9742526,35.5062912 23.2347383,32.9802151 C21.495224,30.454139 21.6027413,27.0898506 23.5,24.68 C25.3242954,24.9075667 27.1616228,25.0144657 29,25 C30.8383772,25.0144657 32.6757046,24.9075667 34.5,24.68 C35.4734186,25.909335 36.0021018,27.4319426 36,29 Z" id="Shape" fill="#F29C1F"></path>
            <circle id="Oval" fill="#2C2F38" cx="29" cy="29" r="4"></circle>
            <path d="M14.69,9.74 C15.6542412,10.5554087 16.3625977,11.6318328 16.73,12.84 C16.8444301,13.2205706 16.934611,13.6080147 17,14 L22,12 C21.93,11.64 21.84,11.29 21.75,10.96 C21.0548777,7.87635222 18.7861742,5.3872387 15.78,4.41 L14.69,9.74 Z" id="Shape" fill="#CC66A1"></path>
            <path d="M28,17 C27.5695696,17 27.1874307,16.7245699 27.0513167,16.3162278 C26.9152027,15.9078856 27.0556557,15.4582582 27.4,15.2 C28.3690465,14.4755142 29.1683089,13.5482742 29.742,12.483 C29.9124157,12.1689635 30.2374227,11.9696976 30.5945941,11.9602637 C30.9517655,11.9508298 31.2868384,12.1326611 31.4735941,12.4372637 C31.6603498,12.7418662 31.6704157,13.1229635 31.5,13.437 C30.7887743,14.7551241 29.7992102,15.9026773 28.6,16.8 C28.4269038,16.9298221 28.2163702,17 28,17 Z" id="Shape" fill="#804169"></path>
            <path d="M33,19 C32.5956041,18.9999137 32.2310659,18.7562725 32.076322,18.3826546 C31.9215781,18.0090366 32.0070921,17.5789943 32.293,17.293 C33.3405142,16.2301076 34.1137444,14.9283491 34.546,13.5 C34.7116854,12.9731203 35.2731203,12.6803146 35.8,12.846 C36.3268797,13.0116854 36.6196854,13.5731203 36.454,14.1 C35.9260351,15.835954 34.9831962,17.4171913 33.707,18.707 C33.5195073,18.8945494 33.2651948,18.9999434 33,19 Z" id="Shape" fill="#804169"></path>
            <path d="M46,18 C45.9967375,17.3291462 46.0570065,16.6594907 46.18,16 C46.5043335,14.12009 47.322223,12.3600745 48.55,10.9 L46.07,6.85 C44.2144798,8.61106756 42.7465713,10.7397052 41.76,13.1 C41.5,13.7 41.24,14.33 41,15 L46,18 Z" id="Shape" fill="#CC66A1"></path>
            <path d="M7.93,19.32 C7.43310058,19.3197984 7.01172514,18.9547716 6.94067982,18.4629773 C6.86963449,17.971183 7.17047338,17.5018242 7.647,17.361 C8.26775049,17.1790473 8.90366755,17.0535374 9.547,16.986 C10.7302173,16.8711288 11.9220774,16.8774952 13.104,17.005 C13.654904,17.061333 14.055833,17.553596 13.9995,18.1045 C13.943167,18.655404 13.450904,19.056333 12.9,19 C11.8557532,18.8862291 10.8026101,18.8795276 9.757,18.98 C9.23434537,19.0332736 8.71757608,19.1336821 8.213,19.28 C8.12119751,19.3074093 8.02580278,19.3208927 7.93,19.32 Z" id="Shape" fill="#804169"></path>
            <path d="M14,24 C13.8436992,23.9999911 13.6895766,23.9633442 13.55,23.893 C12.9716744,23.5842146 12.3383764,23.3919149 11.686,23.327 C11.1435885,23.2757441 10.7420252,22.7997142 10.7828947,22.2564214 C10.8237643,21.7131286 11.2920248,21.3025317 11.836,21.333 C12.7504811,21.4161102 13.6395174,21.6791507 14.452,22.107 C14.865949,22.315621 15.0822612,22.7813745 14.9746043,23.2322476 C14.8669473,23.6831206 14.4635469,24.0009026 14,24 Z" id="Shape" fill="#804169"></path>
            <path d="M50.07,23.32 C49.9744817,23.3204685 49.8794303,23.306649 49.788,23.279 C49.2831073,23.1325858 48.7659972,23.0321761 48.243,22.979 C47.1972926,22.8802943 46.1442951,22.8873299 45.1,23 C44.5504767,23.0552285 44.0602285,22.6545233 44.005,22.105 C43.9497715,21.5554767 44.3504767,21.0652285 44.9,21.01 C46.0815596,20.8819887 47.27314,20.875622 48.456,20.991 C49.0993382,21.0584996 49.7352586,21.1840102 50.356,21.366 C50.8325266,21.5068242 51.1333655,21.976183 51.0623202,22.4679773 C50.9912749,22.9597716 50.5698994,23.3247984 50.073,23.325 L50.07,23.32 Z" id="Shape" fill="#804169"></path>
            <path d="M44,28 C43.5364531,28.0009026 43.1330527,27.6831206 43.0253957,27.2322476 C42.9177388,26.7813745 43.134051,26.315621 43.548,26.107 C44.3604826,25.6791507 45.2495189,25.4161102 46.164,25.333 C46.7079752,25.3025317 47.1762357,25.7131286 47.2171053,26.2564214 C47.2579748,26.7997142 46.8564115,27.2757441 46.314,27.327 C45.6616236,27.3919149 45.0283256,27.5842146 44.45,27.893 C44.3104234,27.9633442 44.1563008,27.9999911 44,28 Z" id="Shape" fill="#804169"></path>
            <circle id="Oval" fill="#804169" cx="10" cy="6" r="6"></circle>
            <circle id="Oval" fill="#FFFFFF" cx="10" cy="6" r="5"></circle>
            <circle id="Oval" fill="#804169" cx="52" cy="6" r="6"></circle>
            <circle id="Oval" fill="#804169" cx="34" cy="8" r="6"></circle>
            <circle id="Oval" fill="#F29C1F" cx="10" cy="6" r="3"></circle>
            <path d="M29,26 C21.654,26 17.5,24.734 16.3,22.131 C15.208,19.758 17.153,17.446 17.237,17.35 C17.5959851,16.9299875 18.2274874,16.880515 18.6475,17.2395 C19.0675125,17.5984851 19.1169851,18.2299874 18.758,18.65 C18.734,18.679 17.558,20.106 18.12,21.306 C18.5,22.113 20.317,24 29,24 C37.683,24 39.506,22.108 39.88,21.3 C40.433,20.1 39.253,18.67 39.241,18.655 C38.9924551,18.3859867 38.9108591,18.0026221 39.0283093,17.6557098 C39.1457595,17.3087974 39.4434623,17.0538477 39.8043109,16.9911498 C40.1651594,16.9284519 40.5314134,17.0680382 40.759,17.355 C40.843,17.455 42.788,19.763 41.696,22.136 C40.5,24.734 36.346,26 29,26 Z" id="Shape" fill="#804169"></path>
            <circle id="Oval" fill="#804169" cx="6" cy="24" r="6"></circle>
            <circle id="Oval" fill="#2C2F38" cx="10" cy="6" r="2"></circle>
            <circle id="Oval" fill="#FFFFFF" cx="6" cy="24" r="5"></circle>
            <circle id="Oval" fill="#FFFFFF" cx="33.964" cy="8" r="5"></circle>
            <circle id="Oval" fill="#FFFFFF" cx="51.993" cy="6" r="5"></circle>
            <circle id="Oval" fill="#F29C1F" cx="34" cy="8" r="3"></circle>
            <circle id="Oval" fill="#F29C1F" cx="52" cy="6" r="3"></circle>
            <circle id="Oval" fill="#2C2F38" cx="52" cy="6" r="2"></circle>
            <circle id="Oval" fill="#2C2F38" cx="34" cy="8" r="2"></circle>
            <circle id="Oval" fill="#804169" cx="52" cy="28" r="6"></circle>
            <circle id="Oval" fill="#FFFFFF" cx="52.073" cy="28" r="5"></circle>
            <circle id="Oval" fill="#F29C1F" cx="52" cy="28" r="3"></circle>
            <circle id="Oval" fill="#F29C1F" cx="6" cy="24" r="3"></circle>
            <circle id="Oval" fill="#2C2F38" cx="6" cy="24" r="2"></circle>
            <circle id="Oval" fill="#2C2F38" cx="52" cy="28" r="2"></circle>
            <circle id="Oval" fill="#FFFFFF" cx="24" cy="28" r="2"></circle>
            <circle id="Oval" fill="#FFFFFF" cx="5" cy="22" r="1"></circle>
            <circle id="Oval" fill="#FFFFFF" cx="9" cy="4" r="1"></circle>
            <circle id="Oval" fill="#FFFFFF" cx="33" cy="6" r="1"></circle>
            <circle id="Oval" fill="#FFFFFF" cx="51" cy="4" r="1"></circle>
            <circle id="Oval" fill="#FFFFFF" cx="51" cy="26" r="1"></circle>
        </g>
    </g>
</svg>