<?xml version="1.0" encoding="utf-8"?>
<!-- Generator: Adobe Illustrator 16.0.0, SVG Export Plug-In . SVG Version: 6.00 Build 0)  -->
<!DOCTYPE svg PUBLIC "-//W3C//DTD SVG 1.0//EN" "http://www.w3.org/TR/2001/REC-SVG-20010904/DTD/svg10.dtd">
<svg version="1.0" id="Layer_1" xmlns="http://www.w3.org/2000/svg" xmlns:xlink="http://www.w3.org/1999/xlink" x="0px" y="0px"
	  viewBox="0 0 100 100" enable-background="new 0 0 100 100" xml:space="preserve">
<polygon fill="#7CB342" points="58.333,23.332 49.999,9.999 41.665,23.332 46.665,23.332 46.665,48.332 53.331,48.332 
	53.331,23.332 "/>
<rect x="46.665" y="23.332" fill="#568B3F" width="6.666" height="4"/>
<polygon fill="#7CB342" points="82.35,89.999 90,89.999 75,63.332 75,36.665 80,36.665 71.667,23.332 63.333,36.665 68.333,36.665 
	68.333,65.079 "/>
<polygon fill="#7CB342" points="17.649,89.999 10,89.999 25,63.332 25,36.665 20,36.665 28.333,23.332 36.666,36.665 31.666,36.665 
	31.666,65.079 "/>
<path fill="#C3996B" d="M40,63.334c0,5.521,4.473,10,10,10c5.521,0,10-4.479,10-10c0-5.526-4.479-10.002-10-10.002
	C44.472,53.332,40,57.808,40,63.334z"/>
<path fill="#C3996B" d="M40,83.334h20v6.667h6.666v-6.667c0-3.665-3.002-6.668-6.666-6.668H40c-3.665,0-6.667,3.003-6.667,6.668
	v6.667H40V83.334z"/>
<rect x="40" y="83.334" fill="#EEEAE8" width="20" height="6.667"/>
<rect x="40" y="83.334" fill="#D7CCC8" width="4" height="6.667"/>
<path fill="#EEEAE8" d="M46.666,63.334c0,1.837,1.491,3.334,3.334,3.334c1.842,0,3.333-1.497,3.333-3.334
	c0-1.841-1.491-3.333-3.333-3.333C48.157,60.001,46.666,61.493,46.666,63.334z"/>
<path fill="#D7CCC8" d="M49.866,63.334c0-1.258,0.705-2.34,1.734-2.906c-0.477-0.264-1.017-0.427-1.6-0.427
	c-1.843,0-3.334,1.492-3.334,3.333c0,1.837,1.491,3.334,3.334,3.334c0.583,0,1.123-0.162,1.6-0.427
	C50.57,65.673,49.866,64.589,49.866,63.334z"/>
<rect x="68.333" y="36.665" fill="#568B3F" width="6.667" height="4"/>
<rect x="25" y="36.665" fill="#568B3F" width="6.667" height="4"/>
</svg>
